<?xml version='1.0' encoding='utf-8'?>
<svg xmlns="http://www.w3.org/2000/svg" width="9.808mm" height="9.808mm" version="1.1" viewBox="0 0 9.808 9.808"> <g transform="matrix(1.6764 0 0 1.6764 1779.2 -1122.3)"> <g transform="matrix(.11032 0 0 .11032 -1085.4 654.98)"/> <path transform="matrix(.15783 0 0 .15783 -1061.3 669.47)" d="m18.537-0.0039062c-10.216 0-18.539 8.3209-18.539 18.537 0 10.216 8.3231 18.537 18.539 18.537 10.216 0 18.537-8.3209 18.537-18.537 0-10.216-8.3212-18.537-18.537-18.537zm0 3.4277c8.3627 0 15.109 6.7468 15.109 15.109s-6.7467 15.109-15.109 15.109c-8.3627 0-15.111-6.7468-15.111-15.109s6.7486-15.109 15.111-15.109zm-0.05664 4.3242c-1.1485 0.028897-2.0645 0.96364-2.0645 2.1191 0 1.1738 0.94511 2.1191 2.1191 2.1191 1.1734 0 2.1191-0.94536 2.1191-2.1191 0-1.1738-0.94574-2.1191-2.1191-2.1191-0.01834 0-0.03646-4.587e-4 -0.05469 0zm0.05469 5.959c-1.1734 0-2.1172 0.94555-2.1172 2.1191v11.377c0 1.1736 0.94379 2.1191 2.1172 2.1191 1.174 0 2.1191-0.94555 2.1191-2.1191v-11.377c0-1.1736-0.94511-2.1191-2.1191-2.1191z" color="#000000" stroke-linecap="round" stroke-width="6.3358" style="-inkscape-stroke:none;paint-order:fill markers stroke"/> </g> </svg>